HIERARCHY
ROOT Hips
{
	OFFSET 0.000000 0.000000 0.000000
	CHANNELS 6 Xposition Yposition Zposition Zrotation Yrotation Xrotation 
	JOINT LowerBack
	{
		OFFSET 0.000000 0.000000 0.000000
		CHANNELS 3 Zrotation Yrotation Xrotation
		JOINT Spine
		{
			OFFSET 0.028270 2.035590 -0.193380
			CHANNELS 3 Zrotation Yrotation Xrotation
			JOINT Spine1
			{
				OFFSET 0.056720 2.048850 -0.042750
				CHANNELS 3 Zrotation Yrotation Xrotation
				JOINT Neck
				{
					OFFSET 0.000000 0.000000 0.000000
					CHANNELS 3 Zrotation Yrotation Xrotation
					JOINT Neck1
					{
						OFFSET -0.054170 1.746240 0.172020
						CHANNELS 3 Zrotation Yrotation Xrotation
						JOINT Head
						{
							OFFSET 0.104070 1.761360 -0.123970
							CHANNELS 3 Zrotation Yrotation Xrotation
							End Site
							{
								OFFSET 0.000000 0.000000 0.000000
							}
						}
					}
				}
				JOINT LeftShoulder
				{
					OFFSET 0.000000 0.000000 0.000000
					CHANNELS 3 Zrotation Yrotation Xrotation
					JOINT LeftArm
					{
						OFFSET 3.362410 1.200890 -0.311210
						CHANNELS 3 Zrotation Yrotation Xrotation
						JOINT LeftForeArm
						{
							OFFSET 4.983000 -0.000000 -0.000000
							CHANNELS 3 Zrotation Yrotation Xrotation
							JOINT LeftHand
							{
								OFFSET 3.483560 -0.000000 -0.000000
								CHANNELS 3 Zrotation Yrotation Xrotation
								JOINT LeftFingerBase
								{
									OFFSET 0.000000 0.000000 0.000000
									CHANNELS 3 Zrotation Yrotation Xrotation
									JOINT LeftHandIndex1
									{
										OFFSET 0.715260 -0.000000 -0.000000
										CHANNELS 3 Zrotation Yrotation Xrotation
										End Site
										{
											OFFSET 0.000000 0.000000 0.000000
										}
									}
								}
								JOINT LThumb
								{
									OFFSET 0.000000 0.000000 0.000000
									CHANNELS 3 Zrotation Yrotation Xrotation
									End Site
									{
										OFFSET 0.000000 0.000000 0.000000
									}
								}
							}
						}
					}
				}
				JOINT RightShoulder
				{
					OFFSET 0.000000 0.000000 0.000000
					CHANNELS 3 Zrotation Yrotation Xrotation
					JOINT RightArm
					{
						OFFSET -3.136600 1.374050 -0.404650
						CHANNELS 3 Zrotation Yrotation Xrotation
						JOINT RightForeArm
						{
							OFFSET -5.241900 -0.000000 -0.000000
							CHANNELS 3 Zrotation Yrotation Xrotation
							JOINT RightHand
							{
								OFFSET -3.444170 -0.000000 -0.000000
								CHANNELS 3 Zrotation Yrotation Xrotation
								JOINT RightFingerBase
								{
									OFFSET 0.000000 0.000000 0.000000
									CHANNELS 3 Zrotation Yrotation Xrotation
									JOINT RightHandIndex1
									{
										OFFSET -0.622530 -0.000000 -0.000000
										CHANNELS 3 Zrotation Yrotation Xrotation
										End Site
										{
											OFFSET 0.000000 0.000000 0.000000
										}
									}
								}
								JOINT RThumb
								{
									OFFSET 0.000000 0.000000 0.000000
									CHANNELS 3 Zrotation Yrotation Xrotation
									End Site
									{
										OFFSET 0.000000 0.000000 0.000000
									}
								}
							}
						}
					}
				}
			}
		}
	}
}
}
MOTION
Frames: 6
Frame Time: 0.008333
3.492046 17.206049 1.048529 -177.631149 -72.898463 -172.700860 1.009910 -0.391171 -3.889386 -0.353810 -0.561661 -3.498187 -6.244736 -0.321897 -0.563993 7.314432 -8.289095 -1.282825 -4.118874 -0.374712 1.719871 0.000000 0.000000 0.000000 12.243122 7.806865 -2.333153 -88.670105 -14.583974 22.252155 -179.043387 -48.529384 179.965268 1.575729 -7.227201 -0.104045 0.096681 1.187932 -0.000000 0.000000 0.000000 0.000000 0.000000 0.000000 0.000000 -0.058660 -5.454617 -4.048015 94.006413 25.889069 40.978512 -179.691980 55.330184 179.881022 -8.454723 13.920667 -1.148024 0.188952 -1.212683 -0.000000 0.000000 0.000000 0.000000 0.000000 0.000000 0.000000 
3.491335 17.207587 1.052211 -177.500787 -72.537394 -172.805043 1.161270 -0.375755 -3.944162 -0.346476 -0.562998 -3.494870 -6.286762 -0.319704 -0.503841 7.258124 -8.384006 -1.314116 -4.124754 -0.374880 1.711698 0.000000 0.000000 0.000000 12.534003 7.928284 -2.427849 -88.214155 -15.397245 21.661700 -178.950194 -48.663969 179.971738 1.244078 -6.609554 -0.072559 0.108832 1.157014 -0.000000 0.000000 0.000000 0.000000 0.000000 0.000000 0.000000 -0.002636 -5.590264 -4.027486 94.068547 26.017377 41.310484 -179.707103 55.413468 179.881899 -8.397970 13.915786 -1.139765 0.187532 -1.211505 -0.000000 0.000000 0.000000 0.000000 0.000000 0.000000 0.000000 
3.490964 17.209593 1.055814 -177.416506 -72.185886 -172.881119 1.346321 -0.337837 -4.021911 -0.348442 -0.546870 -3.494127 -6.388659 -0.295890 -0.442355 7.180277 -8.464245 -1.289185 -4.134991 -0.375859 1.718632 0.000000 0.000000 0.000000 12.781189 8.040438 -2.557428 -87.418874 -16.721985 20.976750 -178.760945 -48.918854 179.980978 0.773038 -5.877367 -0.035639 0.121286 1.122861 -0.000000 0.000000 0.000000 0.000000 0.000000 0.000000 0.000000 0.067627 -5.741334 -3.994197 94.153141 26.114919 41.639367 -179.704078 55.499273 179.882741 -8.306821 13.900567 -1.125730 0.183018 -1.209582 -0.000000 0.000000 0.000000 0.000000 0.000000 0.000000 0.000000 
3.491564 17.211933 1.059267 -177.378273 -71.852503 -172.938768 1.565361 -0.274311 -4.120007 -0.363270 -0.510717 -3.498379 -6.569666 -0.247277 -0.396184 7.097417 -8.513156 -1.179284 -4.146053 -0.377656 1.748677 0.000000 0.000000 0.000000 12.961015 8.097332 -2.721518 -86.205549 -18.658118 20.166606 -178.485720 -49.392382 179.992426 0.185448 -5.070036 0.000942 0.132494 1.086968 -0.000000 0.000000 0.000000 0.000000 0.000000 0.000000 0.000000 0.167427 -5.887939 -3.942017 94.244136 26.166510 41.934552 -179.673014 55.586402 179.883209 -8.196795 13.874555 -1.108029 0.175246 -1.206677 -0.000000 0.000000 0.000000 0.000000 0.000000 0.000000 0.000000 
3.493535 17.214513 1.062255 -177.385873 -71.548870 -172.982981 1.808229 -0.186170 -4.235062 -0.395770 -0.455398 -3.507746 -6.850693 -0.174264 -0.371825 7.045347 -8.521829 -0.973515 -4.149936 -0.379788 1.804976 0.000000 0.000000 0.000000 13.042562 8.083311 -2.911020 -84.508108 -21.311556 19.214030 -178.153163 -50.231737 -179.994784 -0.482611 -4.253897 0.032331 0.140736 1.051782 -0.000000 0.000000 0.000000 0.000000 0.000000 0.000000 0.000000 0.320180 -6.007026 -3.869347 94.320766 26.155514 42.157530 -179.606103 55.660731 179.883031 -8.083351 13.834172 -1.088368 0.164328 -1.202484 -0.000000 0.000000 0.000000 0.000000 0.000000 0.000000 0.000000 
3.496987 17.217303 1.064679 -177.420782 -71.283895 -173.027754 2.064589 -0.084684 -4.364543 -0.447572 -0.391999 -3.522353 -7.239463 -0.088862 -0.373359 7.062013 -8.491413 -0.675405 -4.138058 -0.381622 1.886960 0.000000 0.000000 0.000000 12.992819 7.962762 -3.096577 -82.246895 -24.722127 18.076054 -177.832286 -51.585988 -179.982355 -1.141619 -3.493044 0.053781 0.143619 1.019191 -0.000000 0.000000 0.000000 0.000000 0.000000 0.000000 0.000000 0.553103 -6.074604 -3.778731 94.359913 26.088070 42.291887 -179.504510 55.717034 179.882057 -7.989300 13.779307 -1.069951 0.151427 -1.196845 -0.000000 0.000000 0.000000 0.000000 0.000000 0.000000 0.000000 
